<?xml version="1.0" encoding="UTF-8"?>
<!DOCTYPE svg PUBLIC "-//W3C//DTD SVG 1.1//EN" "http://www.w3.org/Graphics/SVG/1.1/DTD/svg11.dtd">
<!-- Creator: CorelDRAW 2017 -->
<svg xmlns="http://www.w3.org/2000/svg" xml:space="preserve" width="165.88mm" height="63.3638mm" version="1.1" style="shape-rendering:geometricPrecision; text-rendering:geometricPrecision; image-rendering:optimizeQuality; fill-rule:evenodd; clip-rule:evenodd"
viewBox="0 0 21521.19 8220.77"
 xmlns:xlink="http://www.w3.org/1999/xlink">
 <defs>
  <style type="text/css">
   <![CDATA[
    .str0 {stroke:#2B2A29;stroke-width:32.43;stroke-miterlimit:22.9256}
    .fil1 {fill:none}
    .fil0 {fill:#2B2A29;fill-rule:nonzero}
   ]]>
  </style>
 </defs>
 <g id="Warstwa_x0020_1">
  <metadata id="CorelCorpID_0Corel-Layer"/>
  <g id="_849795056">
   <path class="fil0" d="M2282.26 4104.38l-1046.84 1551.68 -19.03 25.73c-396.79,591.48 -677.07,902.89 -841.38,935.03 -97.4,19.06 -177.57,6.54 -241.87,-37.29 -64.3,-43.84 -106.24,-114.05 -125.29,-211.45 -19.06,-97.4 -3.32,-185.77 47.2,-265.14 49.73,-79.88 120.63,-128.84 210.75,-146.46 59.62,-11.66 110.58,-4.44 151.37,21.29 41.33,24.94 67.91,65.83 78.79,121.49 9.85,50.34 2.66,94.41 -20.94,132.04 -23.6,37.64 -59.58,61.19 -108.6,70.77 -35.11,6.88 -77.74,3.52 -127.33,-10.86 -49.46,-13.71 -80.15,-19.41 -92.09,-17.07 -15.22,2.97 -27.32,14.98 -34.17,36.26 -7.63,20.76 -8.26,45.64 -2.7,74.15 10.89,55.65 38.91,96.94 83.31,123.34 45.16,26.93 98.87,34.32 161.16,22.13 62.94,-12.31 124.78,-44.36 184.31,-95.22 60.06,-51.65 124.2,-128.17 192.96,-230.35l2002.45 -2950.68c7.6,-10.43 17.18,-24.68 28.37,-41.32 57.15,-80.66 100.9,-124.29 132.02,-130.37 9.95,-1.95 17.49,-2.05 21.98,-0.18 4.5,1.87 7.27,5.46 8.17,10.09 3.37,17.23 0.62,38.4 -6.62,64.58 -7.94,26.31 -22.25,62.15 -43.23,106.14l-1350.6 2780.52c-1.06,1.58 -2.66,3.96 -4.79,7.14 -21.64,44.14 -31.16,76.26 -27.28,96.14 1.43,7.29 3.92,12.99 7.08,15.11 3.3,2.8 8.99,3.75 16.28,2.32 14.57,-2.85 27.04,-9.42 39,-18.63 11.16,-9.76 25.92,-25.7 42.83,-48.28l2053.65 -2970.31c3.74,-5.57 10.66,-15.85 20.25,-30.11 55.96,-83.19 101.44,-128.52 136.55,-135.4 10.6,-2.08 17.36,-2.71 21.72,-1.49 4.36,1.21 7.25,5.45 8.42,11.4 3.37,17.23 1.83,37.48 -5.15,61.56 -6.19,24.6 -21.3,59.87 -44.67,105.72l-1047.63 2053.99c-108.94,213.24 -193.01,398.91 -252.99,556.48 -59.99,157.57 -85.16,257.42 -76.74,300.49 4.02,20.54 16.14,36.74 37.53,47.68 20.88,11.74 44.82,14.63 71.98,9.33 58.3,-11.4 141.26,-58.59 249.4,-142.35 108.12,-83.75 219.65,-188.8 334.7,-314.49 42.97,-47.61 89.82,-103.56 141.2,-167.95 51.38,-64.39 82.63,-98.03 94.55,-100.37 8.63,-1.69 17.22,0.08 23.81,5.67 7.27,5.46 12.14,12.77 14.21,23.35 4.8,24.53 -52.09,106.5 -170.11,245.16l-21.42 24.14c-134.38,156.98 -260.28,279.98 -378.24,369.78 -117.28,89.66 -224.36,143.63 -321.77,162.68 -80.17,15.69 -147.9,6.93 -203.78,-25.49 -55.33,-33.2 -90.21,-84.85 -104.21,-156.4 -14.13,-72.23 -0.21,-166.43 41.97,-281.31 42.2,-114.88 134.73,-299.44 278.93,-553.97l647.72 -1158.53 -1215.03 1781.99c-152.26,220.34 -267.85,375.01 -347.13,462.07 -79.82,87.85 -147.28,136.81 -202.93,147.7 -43.06,8.42 -77.21,2.71 -103.06,-16.98 -25.87,-19.71 -44.14,-53.28 -53.21,-99.67 -12.7,-64.92 -2.57,-146.71 29.1,-245.08 31.8,-97.71 88.18,-220.87 169.32,-368.82l857.8 -1593.12zm1476.32 1523.15l354.3 -562.51c12.93,-21.8 22.68,-42.28 29.13,-62.11 6.31,-20.5 7.71,-37.97 4.59,-53.88 -2.45,-12.58 -9.17,-22.28 -19.88,-27.75 -10.17,-6.27 -23.53,-7.77 -38.77,-4.79 -44.4,8.68 -98.42,38.51 -163.51,89.08 -64.29,51.09 -127.97,115.82 -191.07,194.21 -102.62,126 -183.78,252.64 -242.18,379.63 -58.4,126.99 -82.86,216.38 -72.76,268.07 3.63,18.54 11.78,32.08 25.12,40.49 13.47,9.06 28.41,11.64 44.98,8.39 35.12,-6.86 77.19,-34.35 126.39,-81.81 49.05,-48.12 96.72,-110.41 143.65,-187.02zm31.97 79.06c-63.27,91.48 -123.56,163.12 -182.41,213.84 -58.75,51.39 -113.95,82.14 -165.64,92.24 -54.33,10.64 -100.61,-0.95 -138.34,-35.52 -37.72,-34.59 -63.44,-88.72 -77.82,-162.26 -16.98,-86.8 -12.65,-173.63 13.54,-261.31 25.66,-86.87 74.89,-176.3 146.92,-268.81 91.87,-121.16 196.23,-224.12 313.23,-308.22 116.34,-83.98 224.59,-135.43 322.65,-154.61 55.66,-10.89 98.82,-8.32 128.68,7.16 29.85,15.49 51.83,46.97 64.6,94.67 14.4,-24.83 31.73,-48.85 51.56,-74.06 19.97,-24.53 42.71,-48.94 69.02,-72.65 10.61,-2.08 25.71,-5.72 44.67,-10.81 18.95,-5.07 33.39,-8.59 42.01,-10.28 45.72,-8.94 78.83,-11.99 99.47,-8.46 20.51,2.88 32.91,13.51 36.16,30.07 3.1,15.91 -20.11,55.53 -69.23,120.87 -26.89,34.83 -48.33,62.42 -64.3,82.75 -141.45,198.25 -249.8,365.29 -325.84,500.55 -76.05,135.25 -109.77,223.03 -101.61,264.77 3.24,16.55 8.89,27.83 17.33,32.38 8.59,5.19 22.48,5.9 41.7,2.15 56.98,-11.14 135.81,-54.76 237.02,-131.66 100.56,-76.77 203.85,-174.71 309.21,-293.68 44.16,-48.54 90.88,-105.15 140.39,-168.49 49.52,-63.34 80.24,-96.18 91.52,-98.38 9.26,-1.82 17.22,0.06 24.47,5.54 7.12,4.79 11.47,12.88 13.54,23.48 4.53,23.18 -53.95,107.54 -175.98,253.87l-8.39 9.89c-121.22,143.4 -241.41,260.46 -359.75,351.72 -118.36,91.25 -219.34,144.71 -302.15,160.92 -59.63,11.66 -110.58,4.42 -152.85,-21.71 -41.59,-26.26 -68.16,-67.15 -79.05,-122.8 -2.21,-11.27 -4.02,-20.54 -4.39,-25.96 -0.51,-6.11 -0.35,-12.33 0.06,-17.22zm1969.14 -1144.62c1.88,-4.49 7.19,-8.96 17.14,-14.35 9.95,-5.38 19.51,-9.33 29.84,-12.73 35.78,-7.01 67.71,-9.11 95.23,-5.55 27.53,3.57 42.58,10.24 44.53,20.19 1.04,5.29 -7.9,22.87 -26.83,52.71 -18.93,29.83 -34.26,56.92 -46.15,80.57 -35.65,70.94 -60.3,138.35 -73.95,202.26 -13.64,63.88 -16.11,118.02 -7.3,163.08 6.6,33.8 20.54,59.26 43.11,76.17 21.9,17.05 47.82,22.98 77.65,17.15 32.45,-6.34 65.62,-23.16 98.97,-49.64 34,-26.6 73.25,-68.66 118.52,-125.67 19.95,-24.55 44.18,-55.41 72.54,-93.3 34.24,-46.6 56.85,-71.65 68.11,-73.86 10.6,-2.08 19.2,-0.32 25.66,4.61 5.67,4.4 10.79,13.03 14.32,24.03 2.34,11.92 -2.1,27.92 -12.65,47.87 -11.08,20.75 -35.43,54.4 -74.83,102.7 -77.86,94.33 -142.49,161.32 -192.7,200.03 -50.21,38.71 -99.83,62.86 -148.85,72.45 -67.59,13.22 -123.29,2.79 -168.3,-30.36 -44.47,-33.95 -74.04,-86.64 -88.3,-159.53 -5.05,-25.84 -7.56,-56.29 -6.89,-91.52 0.67,-35.21 3.62,-72.94 8.56,-114.49 -96.28,130.28 -185.81,263.36 -267.41,398.33 -81.61,134.97 -154.87,270.38 -219.66,406.86 -32.76,11.91 -63.11,21.98 -91.09,30.2 -27.96,8.23 -53.54,14.61 -76.73,19.14 -24.52,4.8 -44.25,5.9 -59.86,3.45 -14.96,-2.57 -23.4,-7.11 -24.96,-15.06 -3.37,-17.23 24.81,-73.64 83.73,-169.79 35.07,-59.81 64.27,-107.49 86.67,-144.21 111.93,-198 185.35,-339.62 221.05,-424.34 35.57,-85.38 49.63,-147.28 42.1,-185.71 -2.34,-11.94 -5.23,-19.62 -9.45,-23.6 -4.22,-4 -9.24,-5.09 -15.85,-3.79 -33.8,6.62 -74.68,29.75 -122.51,70.06 -47.83,40.31 -108.47,103.08 -181.52,186.84 -21.82,25.6 -48.19,59.64 -79.08,102.14 -37.95,52.14 -64.29,79.3 -78.87,82.15 -9.93,1.95 -19.32,-0.34 -27.91,-5.54 -8.72,-5.86 -13.71,-13.83 -15.79,-24.43 -2.45,-12.58 6.79,-35.72 27.83,-68.74 21.07,-33.01 60.34,-85.41 117.18,-157.06 82.93,-103.57 165.77,-189.95 248.68,-258.45 82.9,-68.49 147.55,-107.28 193.93,-116.35 36.44,-7.12 67.13,-1.43 92.08,17.07 24.94,18.51 41.63,47.58 49.16,86 5.57,28.49 6.75,62.65 3.27,101.17 -2.67,39.04 -11.07,84.03 -23.86,134.68l261.44 -333.87zm1216.53 -226.95c-4.89,-0.42 -11.12,-0.57 -17.87,0.06 -6.76,0.64 -16.04,2.45 -29.3,5.03 -40.41,7.91 -81,25.47 -123.87,52.44 -42.22,26.83 -83.42,62.4 -122.93,106.58 -93.92,107.11 -165.78,225.05 -216.38,353.27 -51.25,128.35 -69.41,228.89 -54.91,303.1 9.07,46.37 32.76,83.02 70.92,109.27 38.14,26.25 79.69,34.63 124.73,25.82 90.78,-17.76 189.08,-67.26 295.62,-148.63 106.53,-81.37 215.82,-190.81 328.55,-328.42 29.28,-36.68 63.64,-82.6 102.4,-137.67 44.07,-59.51 71.75,-90.39 84.99,-92.98 9.28,-1.82 17.2,0.08 24.47,5.54 7.14,4.79 11.47,12.9 13.54,23.48 3.23,16.57 -9.87,48.03 -38.79,93.58 -29.72,45.03 -75.25,104.14 -136.07,176.58 -125.37,153.84 -246.48,273.17 -363.36,357.92 -116.21,84.64 -231.62,138.19 -346.91,160.73 -90.77,17.75 -169.61,1.53 -237.19,-48.54 -67.58,-50.07 -110.95,-124.13 -130.13,-222.19 -17.5,-89.46 -7.45,-182.21 30.29,-277.65 37.74,-95.42 103.97,-196.44 198.55,-303.68 68.92,-76.77 143.32,-139.46 222.58,-187.99 79.24,-48.52 159.62,-80.75 241.11,-96.69 60.3,-11.79 111.64,-6.01 154.04,17.35 42.4,23.35 68.2,60.26 78.18,111.28 10.89,55.65 1.66,106.98 -28.45,153.47 -29.33,47 -69.83,75.56 -121.51,85.67 -33.8,6.62 -62.24,1.87 -85.46,-14.92 -23.11,-16.11 -38.36,-41.33 -44.97,-75.13 -6.1,-31.12 1.86,-64.34 24.38,-100.39 22.54,-36.04 57.51,-71.77 103.73,-106.27zm1321.39 -886.52c-7.12,-36.44 -0.36,-68.72 20.42,-96.16 20.76,-27.47 52.35,-45.33 94.09,-53.49 42.4,-8.29 79.06,-3.78 108.64,13.83 29.58,17.61 47.99,44.94 55.13,81.39 7.51,38.43 0.36,72.16 -20.95,100.41 -21.29,28.26 -52.75,46.78 -93.83,54.81 -43.06,8.42 -79.18,3.11 -108.24,-15.28 -29.05,-18.4 -47.73,-47.08 -55.26,-85.5zm-623.73 971.55c-64.05,55.88 -127.35,119.17 -189.2,189.73 -61.87,70.57 -98.84,106.7 -110.1,108.9 -7.95,1.56 -15.09,0.21 -21.43,-4.07 -5.55,-3.72 -9.5,-9.82 -11.05,-17.79 -4.01,-20.54 14.27,-53.69 54.18,-99.33l1.6 -2.37 102.05 -114.88c124.39,-141.27 227.98,-248.22 310.63,-321.49 82.01,-73.13 145.48,-114.43 189.86,-123.11 58.3,-11.4 106.13,-16.63 142.79,-15.56 37.21,0.29 57.18,7.38 59.63,19.98 1.82,9.28 -41.59,68.67 -129.58,178.07 -88.64,109.51 -169.32,217.48 -242.6,324.67 -93.26,135.18 -161.12,245.44 -204.38,330.26 -43.13,85.49 -62.03,143.53 -55.93,174.67 3.23,16.57 11.13,28.79 22.74,35.44 12.42,7.2 27.91,8.99 45.8,5.5 54.32,-10.63 129.84,-53.61 225.89,-128.81 96.69,-75.33 196.15,-171.83 299.78,-289.08 40.97,-43.77 85.81,-95.9 133.86,-156.19 47.51,-59.51 76.51,-90.64 85.12,-92.32 7.94,-1.56 15.23,0.47 22.48,5.92 7.25,5.47 11.34,12.23 12.77,19.51 4.92,25.18 -44.12,98.06 -148.03,220.88l-35.55 43.41c-110.85,133.13 -222.8,243.08 -335.3,329.06 -113.17,86.11 -208.57,136.42 -287.42,151.85 -56.98,11.14 -106.33,4.97 -148.2,-19.18 -41.21,-24.26 -67,-61.17 -76.6,-110.21 -12.96,-66.26 4.62,-152.24 51.93,-258.49 47.33,-106.24 125.44,-234.35 234.26,-384.96zm852.48 577.57c-10.5,6.18 -25.22,11.81 -42.72,17.29 -17.49,5.49 -47.71,12.78 -90.78,21.2 -43.72,8.56 -73.94,12.4 -89.27,11.26 -16.02,-0.99 -24.61,-6.18 -26.69,-16.79 -4.54,-23.18 39.87,-98.6 133.35,-225.56 62.21,-86.47 112.82,-158.27 151.2,-215.32l38.74 -51.6c212.07,-304.95 314.09,-476.25 306.83,-513.35 -3.66,-11.66 -7.86,-19.1 -12.87,-23.61 -5.01,-4.53 -9.51,-6.4 -14.82,-5.36 -36.44,7.12 -79.44,33.42 -128.9,79.54 -49.44,46.14 -116.91,123.32 -201.43,232.7 -21.58,26.93 -47.26,60.85 -77.09,101.77 -38.9,54.37 -66.17,83.8 -81.4,86.78 -9.28,1.82 -17.88,0.04 -26.47,-5.15 -8.58,-5.2 -13.44,-12.51 -15.13,-21.12 -3.63,-18.54 32.36,-77.18 108.51,-176.69 15.85,-20.98 28.49,-37.21 36.37,-49.75 90.65,-116.8 171.41,-206.88 243.57,-270.53 72.28,-62.96 137.19,-100.44 194.17,-111.59 41.08,-8.03 75.6,-0.34 102.78,22.55 27.83,22.77 46.47,61.77 57.1,116.09 1.82,9.29 3.23,20.01 4.5,33.52 1.13,12.84 3.57,32.32 5.72,57.36 110.36,-114.46 201.15,-198.94 273.27,-252.25 71.33,-53.87 135.15,-86.3 190.79,-97.19 41.08,-8.03 76.68,-1.92 105.32,17.93 28.65,19.85 47.19,51.31 55.48,93.71 9.2,47.03 2.63,97.85 -19.71,152.44 -22.34,54.58 -75.55,141.34 -160.24,260.4 -22.12,31.16 -54.22,74.59 -95.36,131.48 -128.92,177.92 -190.26,282.79 -184.18,313.94 2.72,13.91 11.01,24.66 24.11,31.75 13.6,6.28 29.75,7.93 49.63,4.03 56.97,-11.14 134.49,-54.5 233.71,-131.01 98.56,-76.36 200.52,-174.05 306.56,-293.16 45.47,-48.79 92.85,-105.53 142.38,-168.88 49.52,-63.33 79.58,-96.05 91.51,-98.37 9.28,-1.82 16.54,0.19 22.9,4.46 6.46,4.93 11.46,12.9 15.11,24.56 4.53,23.18 -53.95,107.54 -175.03,251.6l-7.73 9.78c-120.42,140.49 -239.94,257.43 -357.9,350.66 -118.76,92.71 -212.2,146.07 -282.43,159.81 -58.29,11.4 -108.45,4.7 -151.25,-20.64 -42.79,-25.33 -68.97,-64.23 -79.08,-115.92 -12.18,-62.27 -1.56,-134.53 30.97,-217.94 32.66,-82.73 86.25,-170.96 160.8,-264.64 23.56,-30.75 55.65,-70.73 97.16,-122.19 100.24,-124.16 148.86,-195.59 145.36,-213.49 -1.82,-9.26 -8,-16.32 -18.45,-20.46 -9.9,-4.94 -21.82,-6.05 -34.41,-3.58 -74.21,14.52 -201.65,126.11 -382.87,335.6 -181.87,209.62 -372.18,471.1 -571.7,783.91zm5492.65 -2635.24c-28.71,-2.63 -56.93,-2.63 -84.2,-1.41 -27.28,1.21 -54.83,4.54 -83.33,10.11 -60.95,11.92 -109.89,32.5 -145.5,61.48 -36.13,29.78 -50.95,59.49 -44.86,90.64 3.11,15.91 14.44,28.13 33.34,36.82 19.68,9.21 40.06,11.42 61.92,7.14 40.43,-7.9 80.62,-27.47 120.61,-58.67 40.52,-32.01 87.47,-80.4 142.03,-146.1zm137.15 -1092.38c-176.33,213.33 -383.57,595.76 -621.57,1147.92 -79.95,182.11 -140.91,320.61 -183.01,414.84 -207.41,451.92 -426.69,804.37 -657.74,1058.01 -231.07,253.63 -471.21,404.47 -719.66,453.06 -164.31,32.15 -308.03,14.86 -431.15,-51.87 -122.98,-66.06 -197.49,-165.68 -223.28,-297.52 -15.43,-78.84 -5.47,-147.51 29.19,-205.88 34.68,-58.38 86.74,-94.7 156.3,-108.31 53,-10.37 98.39,-3.43 135.62,21.61 37.9,24.92 61.7,62.22 71.3,111.26 9.33,47.69 0.8,88.57 -24.22,122.37 -25.7,33.9 -66.05,56.24 -119.71,66.74 -9.28,1.82 -24.91,2.82 -46.89,2.98 -21.96,0.18 -38.92,1.43 -50.86,3.76 -7.02,2.75 -11.68,7.1 -13.29,12.91 -1.62,5.83 -1.13,15.36 1.34,27.96 12.57,64.26 64.49,118.76 155.14,163.64 90.64,44.86 184.59,57.45 281.33,38.52 172.25,-33.69 355.97,-174.19 551.64,-422.28 195.01,-247.96 440.62,-655.77 734.7,-1223.71l10.42 -20.62c328.94,-639.43 619.01,-1104.78 869.68,-1395.25 -93.13,-50.59 -190.57,-81.05 -291.95,-92.87 -102.03,-11.69 -216.31,-5.15 -342.86,19.6 -210.02,41.08 -414.52,117.54 -614.25,228.83 -200.27,112.09 -391.93,257.6 -575.54,437.27 -204.74,198.27 -357.59,401.52 -459.22,609.88 -101.78,207.71 -138.02,388.15 -108.07,541.19 18.66,95.41 61.51,166.82 129.23,214.11 67.72,47.29 147.63,61.92 239.72,43.92 151.73,-29.68 316.63,-136.23 494.55,-320.31 178.6,-184.2 327.57,-407.33 447.03,-668.71 38.36,-85.24 65.23,-176.47 81.53,-272.53 16.17,-96.72 32.53,-146.68 49.09,-149.93 11.92,-2.34 21.56,1.27 30.27,10.59 8.58,8.64 14.61,21.9 17.84,38.47 13.48,68.89 2.7,175.58 -32.33,320 -34.9,145.1 -88.2,287.61 -160.44,428.31 -98.64,188.51 -227.73,347.91 -387.18,478.83 -158.76,130.82 -323.01,212.46 -491.3,245.39 -133.19,26.05 -246.7,8.36 -340.59,-53.08 -94,-62.09 -153.97,-157.69 -179.25,-286.88 -28.63,-146.42 -7.55,-309.45 62.33,-490.27 70.01,-180.17 186.25,-366.63 347.27,-559.79 198.67,-236.28 418.08,-429.85 658.36,-580.04 240.81,-150.98 492.14,-251.72 753.85,-302.92 148.41,-29.04 283.09,-36.81 402.72,-23.07 119.5,13.09 233.09,48.65 341.15,105.24 61.3,-62.88 115.4,-113.37 163.1,-150.91 47.69,-37.52 81.54,-57.9 102.08,-61.92 15.91,-3.1 28.46,-2.13 37.73,2.95 9.77,4.28 15.69,13.43 18.28,26.69 3.23,16.57 -21.93,49.69 -75.62,98.72 -53.57,49.69 -100.12,100.07 -138.46,150.23 67.91,65.82 120.85,132.5 159.89,198.48 39.04,65.97 65.75,135.72 79.88,207.93 24.24,123.9 13.52,248.45 -32.28,372.97 -46.49,124.65 -128.84,252.21 -248.42,382.91 50.26,42.45 90.45,89.62 120.42,140.86 29.97,51.22 51.3,107.59 63.49,169.88 26.04,133.16 15.5,276.24 -31.49,429.9 -47.65,153.77 -129.88,313.63 -248.15,479.15 -108.68,151.28 -227.69,274.31 -357.19,368.42 -129.61,93.45 -263.6,154.07 -402.06,181.14 -89.46,17.5 -167.39,5.9 -233.82,-34.74 -66.43,-40.66 -107.48,-102.81 -123.67,-185.62 -16.46,-84.15 -1.35,-182.72 44.55,-296.26 46.42,-114.34 122.27,-236.48 226.76,-366.98 79.32,-97.38 161.89,-181.63 247.59,-253.43 86.25,-72.58 144,-111.41 173.82,-117.23 13.9,-2.72 26.61,-1.08 36.64,4.53 10.57,4.81 17.16,13.84 19.36,25.1 4.41,22.52 -26.6,60.93 -92.37,115.05 -52.21,42.55 -95.12,79.83 -127.69,110.29 -152.08,143.95 -266.41,283.93 -343.51,420.77 -77.1,136.84 -107.11,250.71 -89.49,340.82 10.89,55.65 37.33,95.88 80,120.55 42.66,24.68 95.46,30.84 159.06,18.41 76.2,-14.91 155.7,-62.09 237.86,-141.45 82.83,-79.49 173.47,-196.28 272.12,-349.71 135.94,-212.32 234.72,-403.62 297.14,-573.37 62.29,-170.4 82.98,-307.21 62.64,-411.22 -5.58,-28.5 -13.8,-53.02 -24.7,-73.59 -10.24,-20.71 -24.07,-38.64 -40.57,-52.6 -81.37,83.32 -149.29,144.06 -202.94,182.76 -53.66,38.7 -103.27,62.86 -148.33,71.67 -55.65,10.89 -103.3,6.45 -142.93,-13.31 -39.65,-19.76 -63.74,-51.51 -72.03,-93.92 -12.18,-62.27 7.91,-117.8 60.82,-167.36 52.91,-49.56 129.44,-83.79 229.48,-103.36 31.15,-6.08 64.79,-9.93 101.61,-11.61 36.82,-1.7 77.32,-2.06 121.8,0.25 83.84,-130.58 141.08,-266.98 172.8,-410.77 31.85,-143.13 35.74,-278.03 10.99,-404.57 -7.4,-37.77 -18.64,-70.64 -34.67,-99.85 -16.04,-29.2 -38.27,-58.55 -66.76,-88.05zm1593.17 720.9c-7.14,-36.44 -0.38,-68.71 20.41,-96.16 20.77,-27.45 52.35,-45.33 94.09,-53.49 42.41,-8.29 79.06,-3.78 108.64,13.84 29.59,17.59 48,44.94 55.13,81.39 7.52,38.42 0.36,72.16 -20.94,100.39 -21.3,28.26 -52.76,46.78 -93.84,54.81 -43.06,8.43 -79.18,3.13 -108.24,-15.28 -29.05,-18.38 -47.73,-47.07 -55.24,-85.5zm-623.75 971.57c-64.05,55.88 -127.34,119.15 -189.2,189.72 -61.86,70.58 -98.84,106.71 -110.08,108.9 -7.97,1.56 -15.1,0.21 -21.43,-4.06 -5.55,-3.74 -9.5,-9.83 -11.05,-17.79 -4.02,-20.54 14.27,-53.69 54.18,-99.33l1.6 -2.37 102.04 -114.9c124.39,-141.27 227.98,-248.22 310.65,-321.48 82,-73.13 145.46,-114.44 189.85,-123.12 58.3,-11.4 106.13,-16.63 142.8,-15.56 37.2,0.3 57.16,7.4 59.63,19.98 1.82,9.29 -41.61,68.67 -129.58,178.07 -88.65,109.53 -169.34,217.48 -242.61,324.67 -93.26,135.19 -161.11,245.45 -204.37,330.26 -43.13,85.49 -62.04,143.53 -55.94,174.68 3.24,16.55 11.13,28.78 22.74,35.44 12.42,7.19 27.91,8.99 45.8,5.49 54.33,-10.63 129.84,-53.61 225.89,-128.81 96.69,-75.33 196.15,-171.81 299.78,-289.08 40.97,-43.77 85.81,-95.89 133.86,-156.19 47.52,-59.51 76.52,-90.64 85.12,-92.31 7.95,-1.56 15.23,0.45 22.48,5.92 7.25,5.46 11.34,12.22 12.77,19.51 4.93,25.18 -44.11,98.06 -148.03,220.88l-35.55 43.41c-110.85,133.13 -222.79,243.08 -335.29,329.06 -113.18,86.11 -208.58,136.41 -287.44,151.83 -56.98,11.14 -106.33,4.98 -148.2,-19.16 -41.21,-24.27 -67,-61.19 -76.59,-110.21 -12.96,-66.26 4.62,-152.25 51.92,-258.49 47.33,-106.26 125.46,-234.35 234.26,-384.96zm875.58 213.95c-7.12,26.86 -11.08,52.39 -12.36,77.4 -1.43,24.37 -0.05,45.42 3.44,63.31 8.17,41.74 27.76,71.62 58.81,89.61 31.02,18.01 70.46,22.68 116.84,13.61 81.49,-15.94 175.71,-65.32 281.85,-148.69 106.14,-83.36 215.44,-192.79 329.08,-329.21 28.62,-36.55 63.64,-82.62 105.05,-138.17 41.28,-56.23 68.01,-84.85 79.28,-87.06 10.6,-2.08 19.06,-0.99 24.87,4.09 6.47,4.92 11.47,12.9 15,23.88 2.84,14.58 -9.59,42.46 -37.7,85.11 -28.11,42.65 -77.78,108.77 -150.07,199.95 -107.68,135.25 -220.15,246 -337.31,332.88 -117.8,87.02 -224.47,139.53 -321.87,158.58 -92.75,18.15 -172.53,4.16 -239.33,-41.93 -66.8,-46.08 -109.8,-118.17 -129.1,-216.87 -17.24,-88.13 -6.51,-181.04 32.03,-279.37 38.55,-98.34 103.04,-197.64 193.64,-297.22 80.19,-85.86 157.81,-153.31 232.69,-203.04 74.9,-49.74 147.19,-81.07 216.74,-94.68 62.29,-12.18 107.96,-10.79 137.68,4.03 29.87,15.48 49.86,47.34 59.45,96.36 19.56,100.05 -33.76,217.79 -159.19,353.77 -125.43,135.98 -292.07,247.67 -499.51,333.65zm33.77 -126.3c167.79,-70.66 303.47,-157.72 407.04,-261.22 103.45,-104.17 148.43,-190.7 134.71,-260.92 -4.8,-24.52 -12.93,-41.5 -24.29,-50.29 -10.56,-8.25 -27.49,-10.44 -49.35,-6.16 -64.93,12.7 -136.67,68 -215.73,166.7 -79.19,98.04 -163.06,235.52 -252.38,411.88zm1347.69 -87.51l258.44 -408.94c7.47,-11.11 18.12,-26.93 33.04,-49.12 70.53,-114.24 102.22,-187.84 95.88,-220.31 -2.47,-12.6 -9.19,-22.28 -19.23,-27.89 -10.83,-6.12 -24.18,-7.64 -39.43,-4.66 -44.4,8.69 -98.41,38.52 -162.84,88.95 -64.95,51.23 -128.65,115.96 -191.08,194.22 -103.27,126.13 -183.78,252.63 -242.18,379.62 -58.38,126.99 -82.86,216.39 -72.76,268.07 3.63,18.55 11.78,32.1 25.13,40.5 12.79,9.17 28.41,11.64 44.97,8.39 35.12,-6.86 77.21,-34.35 126.26,-82.48 49.18,-47.46 96.85,-109.76 143.79,-186.36zm31.16 78.52c-62.48,92.02 -122.76,163.67 -181.62,214.38 -58.75,51.39 -113.95,82.14 -165.64,92.24 -54.32,10.63 -100.61,-0.95 -138.34,-35.54 -37.7,-34.58 -63.43,-88.7 -77.95,-162.91 -16.85,-86.13 -12.64,-173.64 13.67,-260.65 25.66,-86.87 74.9,-176.3 146.92,-268.81 93.19,-121.42 198.22,-224.51 314.57,-308.49 117,-84.1 222.61,-135.03 317.34,-153.56 56.98,-11.16 100,-9.24 129.21,6.37 29.06,14.95 51.7,46.29 68.04,94.68l897.28 -1686.83c10.02,-19.15 21.6,-33.8 34.07,-43.81 12.49,-10 30.4,-16.94 52.26,-21.21 41.74,-8.16 76.44,-10.15 104.89,-5.4 28.44,4.76 44.16,14.76 47.13,30 2.08,10.6 1.91,20.27 -0.52,29 -2.3,9.38 -9.24,23.13 -22.03,42.14l-1252.77 2253.71c-30.93,52.83 -52.97,98.42 -66.12,136.76 -12.47,38.21 -17.09,67.32 -12.95,88.52 3.24,16.57 9.55,27.71 17.99,32.25 7.93,5.33 21.82,6.05 41.7,2.15 56.99,-11.14 135.68,-55.42 236.24,-132.19 100.55,-76.75 203.96,-174.03 309.34,-293.02 44.03,-49.2 90.87,-105.14 140.39,-168.48 49.52,-63.34 80.24,-96.19 91.51,-98.39 9.28,-1.8 17.22,0.08 24.47,5.54 7.12,4.8 11.47,12.9 13.53,23.5 4.54,23.18 -53.93,107.54 -175.97,253.86l-8.38 9.9c-121.63,144.85 -242.22,263.37 -360.57,354.63 -118.89,92.04 -218.42,145.9 -299.91,161.85 -59.63,11.66 -110.58,4.42 -152.96,-22.37 -42.39,-26.78 -68.57,-69.14 -79.71,-126.12 -2.34,-11.92 -4.01,-20.54 -4.51,-26.62 -0.38,-5.44 -0.88,-11.52 -0.6,-17.09z"/>
   <path class="fil0" d="M18869.37 2671.8l354.3 -562.52c12.93,-21.8 22.68,-42.27 29.13,-62.11 6.29,-20.5 7.71,-37.97 4.59,-53.87 -2.47,-12.6 -9.19,-22.29 -19.88,-27.76 -10.17,-6.27 -23.53,-7.77 -38.78,-4.79 -44.4,8.68 -98.41,38.51 -163.5,89.08 -64.29,51.09 -127.99,115.82 -191.07,194.21 -102.62,126 -183.79,252.64 -242.18,379.63 -58.4,126.99 -82.86,216.38 -72.76,268.07 3.62,18.55 11.77,32.08 25.12,40.49 13.45,9.06 28.41,11.64 44.98,8.41 35.11,-6.88 77.19,-34.37 126.38,-81.83 49.07,-48.12 96.72,-110.41 143.66,-187.01zm31.97 79.05c-63.27,91.48 -123.56,163.12 -182.43,213.85 -58.75,51.38 -113.95,82.12 -165.63,92.24 -54.33,10.63 -100.63,-0.96 -138.34,-35.54 -37.72,-34.59 -63.44,-88.72 -77.83,-162.26 -16.97,-86.8 -12.64,-173.63 13.54,-261.31 25.68,-86.87 74.9,-176.29 146.92,-268.81 91.87,-121.16 196.24,-224.12 313.24,-308.22 116.34,-83.98 224.59,-135.43 322.65,-154.61 55.65,-10.89 98.81,-8.32 128.66,7.16 29.85,15.49 51.83,46.97 64.61,94.67 14.4,-24.82 31.72,-48.85 51.56,-74.06 19.95,-24.53 42.71,-48.94 69.02,-72.65 10.6,-2.08 25.71,-5.72 44.67,-10.81 18.95,-5.07 33.39,-8.59 42.01,-10.28 45.71,-8.94 78.83,-11.97 99.46,-8.46 20.51,2.88 32.93,13.52 36.16,30.07 3.11,15.91 -20.1,55.53 -69.23,120.87 -26.89,34.83 -48.31,62.42 -64.3,82.75 -141.45,198.25 -249.8,365.29 -325.83,500.55 -76.05,135.25 -109.79,223.03 -101.61,264.77 3.23,16.57 8.87,27.83 17.33,32.38 8.59,5.19 22.47,5.92 41.69,2.15 56.99,-11.14 135.82,-54.76 237.03,-131.66 100.55,-76.77 203.83,-174.71 309.21,-293.68 44.16,-48.54 90.87,-105.15 140.39,-168.49 49.52,-63.34 80.24,-96.18 91.52,-98.38 9.26,-1.82 17.2,0.06 24.47,5.54 7.12,4.79 11.47,12.9 13.54,23.48 4.53,23.18 -53.96,107.54 -175.98,253.87l-8.39 9.89c-121.22,143.4 -241.41,260.46 -359.77,351.72 -118.35,91.25 -219.34,144.71 -302.15,160.92 -59.63,11.66 -110.58,4.42 -152.83,-21.71 -41.59,-26.26 -68.16,-67.14 -79.05,-122.8 -2.21,-11.27 -4.02,-20.54 -4.4,-25.96 -0.51,-6.11 -0.35,-12.33 0.08,-17.22zm1351.43 -877.27c-71.98,78.74 -147.02,166.34 -225.02,263.45 -77.21,97.65 -122.55,147.11 -135.81,149.71 -7.95,1.56 -13.77,-0.05 -18.9,-5.24 -5.14,-5.19 -8.81,-13.42 -11.14,-25.34 -4.02,-20.54 34.35,-81.02 115.82,-181.56 80.79,-100.42 216.89,-255.68 408.43,-465.12l909.6 -1535.84c12.81,-22.46 25.45,-38.7 38.21,-47.38 11.95,-9.21 27.87,-15.76 47.74,-19.64 37.09,-7.27 69.15,-8.72 94.94,-3.45 25.79,5.28 40.18,15.54 43.16,30.76 2.08,10.61 1.89,20.27 -1.05,29.8 -3.09,8.85 -10.69,22.72 -23.48,41.74l-1039.82 1837.16c-74.46,132.88 -129.36,249.55 -163.41,349.76 -34.19,99.56 -46.04,176.17 -35.67,229.18 6.34,32.45 16.85,54.48 30.96,66.84 14.66,11.59 34.63,15.26 60.47,10.2 59.63,-11.66 127.42,-44.88 203.26,-100.3 75.96,-54.75 165.29,-136.2 268.08,-243.68 65.56,-69.22 131.28,-144.69 197.71,-227.15 65.75,-82.35 103,-124.03 112.28,-125.85 10.6,-2.06 18.54,-0.18 24.87,4.09 6.46,4.93 11.47,12.9 15.13,24.55 4.54,23.2 -55.14,108.47 -177.96,254.26l-8.39 9.89c-121.2,143.41 -240.08,260.22 -357.77,351.35 -117.02,90.99 -217.35,144.32 -300.16,160.51 -59.63,11.66 -109.12,4.84 -149.26,-21.02 -40.13,-25.84 -65.51,-67.67 -76.52,-123.99 -14.78,-75.52 -9.63,-168.71 16,-280.34 24.85,-112.19 70.58,-247.7 137.72,-407.36z"/>
  </g>
  <path class="fil1 str0" d="M250.36 7048.67l20748.65 -4058.53c66.36,-12.97 131.4,31.46 144.57,98.77l0 0c13.17,67.3 -30.35,132.97 -96.69,145.96l-20748.65 4058.53c-66.36,12.97 -131.4,-31.46 -144.57,-98.77l0 0c-13.17,-67.3 30.35,-132.97 96.69,-145.96z"/>
  <path class="fil0" d="M4627.72 8220.77l-136.65 -698.62 541.53 -105.92 16.04 81.96 -435.03 85.1 42.55 217.59 376.72 -73.69 16.04 81.96 -376.72 73.69 62.03 317.11 -106.5 20.84zm681.48 -133.31l-136.65 -698.62 355.81 -69.59c71.55,-14 127.17,-18.29 166.82,-13.05 39.62,5.25 73.67,21.56 102.1,48.92 28.45,27.36 46.33,60.33 53.84,98.72 9.7,49.6 -0.61,95 -30.79,136.19 -30.16,41.19 -82.76,73.77 -157.94,98.1 30.5,6.19 54.1,13.73 70.9,22.26 35.85,18.66 71.27,43.97 106.02,75.83l176.06 163.12 -132.67 25.95 -134.58 -124.61c-39.06,-36.09 -70.94,-63.13 -95.28,-81.49 -24.55,-18.33 -45.51,-30.28 -63.14,-36.11 -17.42,-5.72 -34.87,-8.72 -52.03,-9.07 -12.38,0.22 -32.21,2.92 -59.68,8.29l-122.95 24.04 60.69 310.28 -106.53 20.84zm30.18 -411.12l227.98 -44.59c48.59,-9.5 85.47,-21.29 111.03,-35.39 25.6,-13.96 43.61,-32.01 53.84,-54.1 10.44,-21.96 13.47,-44.18 9.06,-66.78 -6.46,-33.01 -25.44,-57.67 -57.09,-73.59 -31.63,-15.93 -77.05,-18.02 -136.29,-6.44l-253.76 49.63 45.23 231.26zm678.25 -80.5c-22.65,-115.78 -4.53,-213.54 54.22,-293.07 58.75,-79.54 144.67,-130.28 257.91,-152.44 74.18,-14.5 143.92,-12.1 209.54,6.97 65.43,19.11 119.23,53.17 161.23,102.2 41.96,48.86 69.86,108.24 83.51,178 13.84,70.73 9.81,137.37 -12.17,199.58 -21.95,62.38 -60.21,113.77 -114.78,154.16 -54.74,40.58 -116.96,67.62 -186.66,81.26 -75.68,14.8 -146.26,12.05 -212.07,-7.99 -65.62,-20.08 -119.31,-54.5 -160.71,-103.48 -41.36,-48.79 -68.04,-103.86 -80.02,-165.17zm110.19 -19.86c16.44,84.08 55.36,145.18 116.77,183.32 61.39,38.13 131.35,49.61 209.83,34.25 79.97,-15.63 140.79,-52.86 183.02,-111.77 42.02,-58.88 54.27,-133.2 36.7,-222.97 -11.09,-56.75 -31.83,-104.19 -62.15,-142.16 -30.33,-37.97 -69.09,-64.49 -116.04,-79.45 -47.16,-14.93 -97.11,-17.31 -149.98,-6.97 -75.13,14.7 -135.4,49.78 -180.8,105.27 -45.41,55.48 -57.88,135.58 -37.35,240.47zm859.81 183.18l-136.65 -698.62 109.12 -21.34 528.45 465.96 -107.26 -548.34 102.03 -19.95 136.65 698.61 -109.14 21.36 -528.45 -465.97 107.27 548.36 -102.03 19.95zm1014.86 -198.51l-120.62 -616.65 -264.6 51.77 -16.04 -81.97 635.71 -124.36 16.04 81.97 -264.59 51.75 120.62 616.66 -106.52 20.82zm326.35 -281.64l-16.8 -85.86 304.96 -59.65 16.79 85.86 -304.95 59.65zm468.2 126.22l-136.65 -698.62 579.65 -113.38 16.04 81.97 -473.13 92.54 41.98 214.65 442.86 -86.63 16.04 81.97 -442.86 86.63 46.56 238.07 492.19 -96.28 16.04 81.97 -598.71 117.1zm744.46 -145.62l-136.65 -698.62 109.14 -21.34 528.45 465.96 -107.26 -548.34 102.03 -19.97 136.65 698.62 -109.14 21.36 -528.45 -465.97 107.26 548.36 -102.03 19.95zm810.81 -158.59l-136.65 -698.62 276.57 -54.1c62.42,-12.21 110.69,-18.28 144.89,-18.03 47.77,0.27 90.3,9.34 127.52,27.05 48.52,22.92 87.87,56.44 118.27,100.81 30.61,44.32 51.9,97.72 64.08,160.01 10.38,53.02 12.48,101.4 6.28,145.17 -6.18,43.76 -17.84,81.32 -34.83,112.51 -17.18,31.22 -37.33,57.11 -60.87,77.6 -23.33,20.59 -52.99,38.56 -88.81,53.84 -36,15.31 -78.21,27.61 -126.79,37.12l-289.64 56.66zm90.49 -102.81l171.16 -33.47c52.87,-10.35 93.53,-22.68 121.93,-37.18 28.4,-14.52 49.96,-31.23 64.84,-50.34 20.76,-26.86 34.59,-60.29 41.35,-100.11 6.76,-39.82 5.09,-86.09 -5.25,-138.95 -14.31,-73.17 -39.16,-126.74 -74.31,-160.72 -35.17,-33.98 -73.77,-53.78 -115.81,-59.41 -30.28,-4.03 -76.99,0.21 -140.14,12.56l-168.36 32.94 104.6 534.68zm1030.69 -116.51l-136.65 -698.62 276.57 -54.09c62.42,-12.21 110.69,-18.29 144.89,-18.05 47.78,0.29 90.3,9.34 127.52,27.05 48.52,22.94 87.87,56.44 118.27,100.81 30.61,44.32 51.91,97.73 64.09,160.01 10.37,53.02 12.47,101.4 6.28,145.17 -6.19,43.76 -17.85,81.33 -34.85,112.52 -17.16,31.2 -37.33,57.1 -60.87,77.58 -23.31,20.6 -52.99,38.56 -88.79,53.84 -36,15.31 -78.22,27.62 -126.81,37.12l-289.64 56.66zm90.49 -102.81l171.16 -33.47c52.88,-10.34 93.53,-22.68 121.93,-37.18 28.4,-14.5 49.96,-31.22 64.86,-50.34 20.75,-26.86 34.58,-60.29 41.35,-100.11 6.75,-39.82 5.07,-86.09 -5.27,-138.95 -14.31,-73.17 -39.14,-126.74 -74.3,-160.71 -35.19,-33.99 -73.78,-53.79 -115.81,-59.42 -30.29,-4.03 -77,0.21 -140.14,12.56l-168.38 32.94 104.6 534.68zm721.43 -56.01l-136.65 -698.62 579.66 -113.38 16.02 81.96 -473.13 92.56 42 214.65 442.86 -86.63 16.04 81.96 -442.86 86.63 46.56 238.07 492.19 -96.27 16.04 81.96 -598.72 117.12zm974.32 -190.59l-446.85 -637.94 115.1 -22.51 307.85 466.91c24.6,37.4 46.24,72.68 64.42,106.1 4.85,-40.62 11.79,-81.49 20.8,-122.77l117.08 -550.02 108.4 -21.2 -176.35 759.83 -110.43 21.6zm521.33 -101.98l-136.64 -698.61 579.65 -113.39 16.04 81.97 -473.13 92.54 41.98 214.65 442.86 -86.63 16.04 81.97 -442.86 86.63 46.56 238.07 492.19 -96.28 16.04 81.97 -598.72 117.1zm741.11 -144.96l-136.65 -698.62 106.5 -20.84 120.63 616.66 394.65 -77.21 16.04 81.97 -501.17 98.03zm529.02 -456.54c-22.64,-115.78 -4.53,-213.54 54.23,-293.07 58.75,-79.54 144.66,-130.28 257.91,-152.43 74.17,-14.52 143.92,-12.12 209.53,6.95 65.44,19.12 119.24,53.17 161.24,102.2 41.96,48.86 69.86,108.24 83.51,178 13.84,70.73 9.81,137.37 -12.17,199.58 -21.95,62.39 -60.21,113.77 -114.78,154.16 -54.74,40.6 -116.96,67.62 -186.66,81.26 -75.69,14.8 -146.27,12.05 -212.07,-7.98 -65.64,-20.1 -119.31,-54.5 -160.71,-103.48 -41.36,-48.81 -68.04,-103.87 -80.04,-165.18zm110.19 -19.86c16.45,84.08 55.37,145.19 116.77,183.32 61.39,38.13 131.36,49.61 209.84,34.26 79.97,-15.65 140.79,-52.87 183.01,-111.78 42.02,-58.88 54.27,-133.19 36.72,-222.96 -11.11,-56.76 -31.83,-104.19 -62.16,-142.17 -30.32,-37.97 -69.07,-64.49 -116.04,-79.45 -47.15,-14.92 -97.1,-17.31 -149.98,-6.97 -75.12,14.7 -135.38,49.78 -180.79,105.27 -45.41,55.48 -57.88,135.59 -37.36,240.47zm860.94 182.97l-136.65 -698.62 303.1 -59.29c53.24,-10.42 94.44,-16.11 123.51,-17.23 40.54,-2.04 75.74,2.4 105.59,13.1 29.87,10.87 55.74,29.11 77.62,54.72 21.9,25.6 36.13,55.74 42.9,90.38 11.59,59.19 -0.26,113.68 -35.8,163.17 -35.3,49.63 -109.95,85.51 -223.57,107.74l-205.92 40.28 55.72 284.91 -106.52 20.84zm34.76 -387.71l207.41 -40.57c68.76,-13.45 115.2,-34.02 139.78,-61.96 24.43,-27.89 32.71,-61.94 24.78,-102.43 -5.68,-29.11 -18.99,-52.51 -40.06,-70.01 -21.08,-17.49 -46.2,-26.92 -75.17,-28.18 -18.73,-0.56 -52.22,3.8 -100.24,13.19l-205.36 40.17 48.86 249.79zm715.3 240.99l-136.65 -698.62 579.65 -113.38 16.04 81.97 -473.13 92.54 42 214.65 442.86 -86.63 16.04 81.97 -442.88 86.63 46.58 238.06 492.19 -96.27 16.04 81.96 -598.72 117.12zm747.83 -146.28l-136.65 -698.62 355.8 -69.59c71.56,-14 127.18,-18.29 166.82,-13.05 39.64,5.25 73.68,21.56 102.1,48.92 28.45,27.36 46.33,60.33 53.84,98.72 9.7,49.59 -0.61,95 -30.79,136.19 -30.16,41.19 -82.76,73.77 -157.94,98.1 30.5,6.19 54.1,13.73 70.9,22.26 35.86,18.64 71.27,43.97 106.02,75.83l176.06 163.12 -132.67 25.95 -134.58 -124.61c-39.06,-36.09 -70.93,-63.13 -95.28,-81.49 -24.55,-18.35 -45.5,-30.28 -63.14,-36.11 -17.41,-5.72 -34.87,-8.72 -52.03,-9.07 -12.36,0.22 -32.21,2.92 -59.68,8.29l-122.95 24.04 60.69 310.28 -106.52 20.84zm30.18 -411.12l227.96 -44.59c48.59,-9.51 85.47,-21.29 111.03,-35.39 25.6,-13.96 43.61,-32.01 53.84,-54.1 10.44,-21.96 13.48,-44.18 9.06,-66.78 -6.46,-33.01 -25.44,-57.67 -57.09,-73.59 -31.63,-15.93 -77.05,-18.03 -136.28,-6.44l-253.77 49.63 45.24 231.26z"/>
 </g>
</svg>
